<svg width="119" height="94" viewBox="0 0 119 94" fill="none" xmlns="http://www.w3.org/2000/svg">
<path d="M27.0784 58.26L32.2384 56.76V84.76H27.0784V82.4C25.5584 84.3467 23.3984 85.32 20.5984 85.32C17.905 85.32 15.5984 84.3067 13.6784 82.28C11.785 80.2267 10.8384 77.72 10.8384 74.76C10.8384 71.8 11.785 69.3067 13.6784 67.28C15.5984 65.2267 17.905 64.2 20.5984 64.2C23.3984 64.2 25.5584 65.1733 27.0784 67.12V58.26ZM17.5584 78.84C18.625 79.88 19.9584 80.4 21.5584 80.4C23.1584 80.4 24.4784 79.88 25.5184 78.84C26.5584 77.7733 27.0784 76.4133 27.0784 74.76C27.0784 73.1067 26.5584 71.76 25.5184 70.72C24.4784 69.6533 23.1584 69.12 21.5584 69.12C19.9584 69.12 18.625 69.6533 17.5584 70.72C16.5184 71.76 15.9984 73.1067 15.9984 74.76C15.9984 76.4133 16.5184 77.7733 17.5584 78.84Z" fill="url(#paint0_linear)"/>
<path d="M39.5174 62.36C38.6641 62.36 37.9174 62.0533 37.2774 61.44C36.6641 60.8 36.3574 60.0533 36.3574 59.2C36.3574 58.3467 36.6641 57.6 37.2774 56.96C37.9174 56.32 38.6641 56 39.5174 56C40.3974 56 41.1441 56.32 41.7574 56.96C42.3974 57.6 42.7174 58.3467 42.7174 59.2C42.7174 60.0533 42.3974 60.8 41.7574 61.44C41.1441 62.0533 40.3974 62.36 39.5174 62.36ZM36.9574 84.76V64.76H42.1174V86.3522L36.9574 84.76Z" fill="url(#paint1_linear)"/>
<path d="M62.1603 64.76H67.2003V83.8C67.2003 86.8933 66.1736 89.2533 64.1203 90.88C62.0936 92.5067 59.6403 93.32 56.7603 93.32C54.6003 93.32 52.6936 92.9067 51.0403 92.08C49.4136 91.2533 48.1603 90.04 47.2803 88.44L51.6803 85.92C52.6936 87.7867 54.4403 88.72 56.9203 88.72C58.5469 88.72 59.8269 88.2933 60.7603 87.44C61.6936 86.5867 62.1603 85.3733 62.1603 83.8V81.64C60.6403 83.6667 58.5069 84.68 55.7603 84.68C52.9336 84.68 50.5603 83.6933 48.6403 81.72C46.7469 79.72 45.8003 77.2933 45.8003 74.44C45.8003 71.6133 46.7603 69.2 48.6803 67.2C50.6003 65.2 52.9603 64.2 55.7603 64.2C58.5069 64.2 60.6403 65.2133 62.1603 67.24V64.76ZM52.5203 78.4C53.5869 79.4133 54.9336 79.92 56.5603 79.92C58.1869 79.92 59.5203 79.4133 60.5603 78.4C61.6269 77.36 62.1722 76.1079 62.1603 74.44C62.1486 72.801 61.6269 71.5733 60.5603 70.56C59.5203 69.52 58.1869 69 56.5603 69C54.9336 69 53.5869 69.52 52.5203 70.56C51.4803 71.5733 50.9603 72.8667 50.9603 74.44C50.9603 76.04 51.4803 77.36 52.5203 78.4Z" fill="url(#paint2_linear)"/>
<path d="M74.4393 62.36C73.586 62.36 72.8393 62.0533 72.1993 61.44C71.586 60.8 71.2793 60.0533 71.2793 59.2C71.2793 58.3467 71.586 57.6 72.1993 56.96C72.8393 56.32 73.586 56 74.4393 56C75.3193 56 76.066 56.32 76.6793 56.96C77.3193 57.6 77.6393 58.3467 77.6393 59.2C77.6393 60.0533 77.3193 60.8 76.6793 61.44C76.066 62.0533 75.3193 62.36 74.4393 62.36ZM71.8793 86.3487V64.76H77.0393V84.76L71.8793 86.3487Z" fill="url(#paint3_linear)"/>
<path d="M93.2021 69.72H88.6821V78.04C88.6821 78.7333 88.8555 79.24 89.2021 79.56C89.5488 79.88 90.0555 80.0667 90.7221 80.12C91.3888 80.1467 92.2155 80.1333 93.2021 80.08V84.76C89.6555 85.16 87.1488 84.8267 85.6821 83.76C84.2421 82.6933 83.5221 80.7867 83.5221 78.04V69.72H80.0421V64.76H83.5221V59.16L88.6599 60.76L88.6821 64.76H93.2021V69.72Z" fill="url(#paint4_linear)"/>
<mask id="mask0" mask-type="alpha" maskUnits="userSpaceOnUse" x="0" y="0" width="119" height="81">
<path d="M93.2022 67.22V64.76H90.7022V67.22H93.2022Z" fill="#C4C4C4"/>
<path d="M34.7385 53.4298L31.5406 54.3594L32.2385 56.76H34.4041C34.5028 56.5541 34.6144 56.354 34.7385 56.16V53.4298Z" fill="#C4C4C4"/>
<path d="M27.0785 58.26L26.3806 55.8594L24.5785 56.3833V58.26H27.0785Z" fill="#C4C4C4"/>
<path fill-rule="evenodd" clip-rule="evenodd" d="M11.8516 65.5733L11.8524 65.5725L13.6207 67.226L11.8516 65.5733ZM7.44835 72.26H8.54272H10.8385V74.76H13.3385V77.26H10.8385H5.00007H2.55178L2.50062 74.8122L1.00062 3.05225L0.947266 0.5H3.50007H116H118.791L118.485 3.27399L110.485 75.8301L110.217 78.2579L107.784 78.0467L88.4661 76.3706L88.6822 73.88H91.1822V72.22V71.5876V69.72H93.2022V67.26H90.7022H88.6822H86.1961L86.1958 67.22H88.6822H90.7022H93.2022V64.76V62.26H95.7022V64.76V69.72V71.9797L105.783 72.8544L113.209 5.5H6.05287L7.44835 72.26ZM79.2243 62.26H79.5394L79 64L77.5422 64.76H77.0394H75.5329C75.2102 64.8206 74.8785 64.8538 74.5394 64.8592V67.26H74.3794V64.8597C74.0303 64.8562 73.69 64.8226 73.3598 64.76H71.8794H69.7004H69.3794V62.26H69.6732C69.092 61.3591 68.7794 60.3247 68.7794 59.2C68.7794 57.6748 69.3543 56.3156 70.3944 55.2302L70.4128 55.211L70.4316 55.1922C71.5089 54.115 72.8797 53.5 74.4394 53.5C75.9975 53.5 77.3873 54.0954 78.4657 55.2108C79.5315 56.2853 80.1394 57.6492 80.1394 59.2C80.1394 60.3331 79.8149 61.3664 79.2243 62.26ZM79.2243 62.26H77.5422V62.3028V63.9487C77.862 63.7376 78.1645 63.4904 78.4472 63.2078C78.7419 62.9131 79.0019 62.5965 79.2243 62.26ZM44.764 56.9896C45.0585 57.6669 45.2159 58.4058 45.2169 59.1928L45.2156 59.1743C45.2037 58.9913 45.1309 57.8667 44.7508 56.9589L44.764 56.9896ZM29.7385 71.9182V70.76H32.2385L30.622 72.6671L29.7385 71.9182ZM39.4575 67.26V64.8597L39.5175 64.86C39.5509 64.86 39.5842 64.8597 39.6175 64.8592V67.26H39.4575ZM39.6175 64.8592V64.76H40.611C40.2883 64.8206 39.9566 64.8538 39.6175 64.8592ZM39.4575 64.8597V64.76H38.438C38.7681 64.8226 39.1084 64.8562 39.4575 64.8597ZM62.1604 67.26H64.6604V67.24H62.1604V67.26ZM86.0222 67.22H83.5222H82.5422H80.0422V67.26H82.5422H83.5222H86.0222V67.22ZM37.2775 56.96L39.0453 58.7278L39.0645 58.7089L39.0825 58.6898L37.2775 56.96ZM15.5045 68.9875L13.6785 67.28L15.5053 68.9867L15.5045 68.9875ZM74.8928 58.709L74.8745 58.6898C74.7287 58.5377 74.6323 58.5 74.4394 58.5C74.2972 58.5 74.1777 58.5234 73.9864 58.7089C73.8154 58.8933 73.7794 59.0245 73.7794 59.2C73.7794 59.3691 73.8128 59.4971 73.9682 59.6712C74.1423 59.8266 74.2703 59.86 74.4394 59.86C74.6672 59.86 74.7748 59.8091 74.9117 59.6722C75.1144 59.4695 75.1394 59.347 75.1394 59.2C75.1394 59.053 75.1144 58.9305 74.9117 58.7278L74.8928 58.709Z" fill="#C4C4C4"/>
<path d="M62.1604 62.26H59.6604V62.3533C60.5594 62.6818 61.3957 63.1348 62.1604 63.7144V62.26Z" fill="#C4C4C4"/>
<path d="M24.5785 56.3833L26.3806 55.8594L31.5406 54.3594L34.7385 53.4298V56.16C34.9483 55.8318 35.1937 55.5212 35.4726 55.2302L35.491 55.211L35.5098 55.1922C36.5871 54.115 37.9578 53.5 39.5175 53.5C41.0757 53.5 42.4655 54.0954 43.5438 55.2108L43.5448 55.2118C43.5765 55.2424 44.3409 55.9797 44.7508 56.9589L44.764 56.9896C45.0585 57.6669 45.2159 58.4058 45.2169 59.1928L45.2175 59.2C45.2175 60.3331 44.893 61.3664 44.3024 62.26H44.6175V64.76V68.6473C45.1871 67.5063 45.9407 66.4439 46.8769 65.4687C49.2736 62.9721 52.2873 61.7 55.7604 61.7C57.1572 61.7 58.4643 61.9163 59.6604 62.3533V62.26H62.1604H67.2004H69.3794H69.6732C69.092 61.3591 68.7794 60.3247 68.7794 59.2C68.7794 57.6748 69.3543 56.3156 70.3944 55.2302L70.4128 55.211L70.4316 55.1922C71.5089 54.115 72.8797 53.5 74.4394 53.5C75.9975 53.5 77.3873 54.0954 78.4657 55.2108C79.5315 56.2853 80.1394 57.6492 80.1394 59.2C80.1394 60.3331 79.8149 61.3664 79.2243 62.26H79.5394H80.0422L80.5 62L81.0222 59.16V55.763L84.2656 56.7731L89.4034 58.3731L91.1498 58.917L91.16 60.7461L91.1684 62.26H93.2022H95.7022V64.76V69.72V71.9797L105.783 72.8544L113.209 5.5H6.05287L7.44835 72.26H8.54272C8.96925 69.7376 10.0658 67.4849 11.8516 65.5733L11.8524 65.5725C14.2219 63.0385 17.1796 61.7 20.5985 61.7C22.0212 61.7 23.3562 61.9108 24.5785 62.3433V58.26V56.3833Z" fill="#C4C4C4"/>
</mask>
<g mask="url(#mask0)">
<path d="M73.1053 81C66.9001 81 62.0212 78.6429 58.4685 73.9286C54.9633 69.1667 53.2107 62.8571 53.2107 55C53.2107 47.1429 54.9633 40.8571 58.4685 36.1429C62.0212 31.381 66.9001 29 73.1053 29C79.3579 29 84.2369 31.381 87.7421 36.1429C91.2474 40.8571 93 47.1429 93 55C93 62.8571 91.2474 69.1667 87.7421 73.9286C84.2369 78.6429 79.3579 81 73.1053 81ZM65.5738 67.2143C67.279 69.9762 69.7896 71.3571 73.1053 71.3571C76.4211 71.3571 78.9316 69.9524 80.6369 67.1429C82.3895 64.3333 83.2658 60.2857 83.2658 55C83.2658 49.6667 82.3895 45.5952 80.6369 42.7857C78.9316 39.9762 76.4211 38.5714 73.1053 38.5714C69.7896 38.5714 67.279 39.9762 65.5738 42.7857C63.8685 45.5952 63.0159 49.6667 63.0159 55C63.0159 60.3333 63.8685 64.4048 65.5738 67.2143Z" fill="url(#paint5_linear)"/>
<path fill-rule="evenodd" clip-rule="evenodd" d="M49.7235 62.3571V71.5L47.5 77.5L44.3946 80H34.5183V71.5H11V62.3571L30.8236 30H38.071H44.3946V62.3571H49.7235ZM34.5183 62.3571H21.5868L34.5183 40.7143V62.3571Z" fill="url(#paint6_linear)"/>
</g>
<defs>
<linearGradient id="paint0_linear" x1="10.8384" y1="93.32" x2="96.8175" y2="73.7491" gradientUnits="userSpaceOnUse">
<stop stop-color="#00C2FF"/>
<stop offset="1" stop-color="#FF003D"/>
</linearGradient>
<linearGradient id="paint1_linear" x1="10.8384" y1="93.32" x2="96.8175" y2="73.7491" gradientUnits="userSpaceOnUse">
<stop stop-color="#00C2FF"/>
<stop offset="1" stop-color="#FF003D"/>
</linearGradient>
<linearGradient id="paint2_linear" x1="10.8384" y1="93.32" x2="96.8175" y2="73.7491" gradientUnits="userSpaceOnUse">
<stop stop-color="#00C2FF"/>
<stop offset="1" stop-color="#FF003D"/>
</linearGradient>
<linearGradient id="paint3_linear" x1="10.8384" y1="93.32" x2="96.8175" y2="73.7491" gradientUnits="userSpaceOnUse">
<stop stop-color="#00C2FF"/>
<stop offset="1" stop-color="#FF003D"/>
</linearGradient>
<linearGradient id="paint4_linear" x1="10.8384" y1="93.32" x2="96.8175" y2="73.7491" gradientUnits="userSpaceOnUse">
<stop stop-color="#00C2FF"/>
<stop offset="1" stop-color="#FF003D"/>
</linearGradient>
<linearGradient id="paint5_linear" x1="11" y1="81" x2="98.7143" y2="66.7339" gradientUnits="userSpaceOnUse">
<stop stop-color="#00C2FF"/>
<stop offset="1" stop-color="#FF003D"/>
</linearGradient>
<linearGradient id="paint6_linear" x1="11" y1="81" x2="98.7143" y2="66.7339" gradientUnits="userSpaceOnUse">
<stop stop-color="#00C2FF"/>
<stop offset="1" stop-color="#FF003D"/>
</linearGradient>
</defs>
</svg>
