<svg width="451" height="331" viewBox="0 0 451 331" fill="none" xmlns="http://www.w3.org/2000/svg">
<g clip-path="url(#clip0)">
<path opacity="0.1" d="M147.107 210.016C162.024 204.143 185.438 202.945 206.751 203.416C273.697 204.883 334.127 219.157 386.396 235.304C405.32 241.152 423.949 247.452 436.233 255.502C461.237 271.889 453.82 294.59 419.052 308.09C407.221 312.684 392.882 316.217 378.158 319.322C351.974 324.875 323.74 329.327 294.027 330.611C272.842 331.513 251.393 330.778 230.332 329.516C171.484 325.978 113.724 318.206 65.3093 304.847C44.0736 299 24.06 291.728 15.3179 282.262C6.57576 272.796 12.1646 260.811 33.8489 255.207C42.8217 252.893 53.5378 251.845 64.036 250.866C79.4864 249.42 95.1846 247.991 109.127 245.053C123.53 242.016 140.583 236.143 137.733 229.423C134.661 222.211 132.208 215.88 147.107 210.016Z" fill="#6C63FF"/>
<path opacity="0.1" d="M215.083 12.8881L213.455 107.42C213.455 107.42 272.385 107.42 322.522 123.718L323.5 28.1929C323.5 28.1929 243.083 8.97844 215.083 12.8881Z" fill="black"/>
<path d="M214.228 11.6048L212.6 106.137C212.6 106.137 271.531 106.137 321.667 122.434L322.646 26.9096C322.646 26.9096 242.228 7.6952 214.228 11.6048Z" fill="#F5F5FB"/>
<path opacity="0.1" d="M189.985 12.8154L191.613 107.348C191.613 107.348 132.682 107.348 82.5457 123.645L81.5673 28.1458C81.5673 28.1458 161.985 8.90574 189.985 12.8154Z" fill="black"/>
<path d="M190.839 11.5321L192.467 106.064C192.467 106.064 133.537 106.064 83.4003 122.362L82.4219 26.8626C82.4219 26.8626 162.84 7.62247 190.839 11.5321Z" fill="#F5F5FB"/>
<path opacity="0.1" d="M337.724 41.6712V135.215C337.724 135.215 356.952 132.936 397.304 182.802L400.889 89.2582C400.889 89.2582 358.888 43.9554 337.724 41.6712Z" fill="black"/>
<path d="M336.87 40.8157V134.36C336.87 134.36 356.097 132.08 396.449 181.947L400.034 88.4027C400.034 88.4027 358.033 43.0999 336.87 40.8157Z" fill="#F5F5FB"/>
<path opacity="0.1" d="M68.39 44.4473V137.996C68.39 137.996 49.1625 135.716 8.81044 185.583L5.22986 92.0386C5.22986 92.0386 47.227 46.7357 68.39 44.4473Z" fill="black"/>
<path d="M69.2446 43.164V136.713C69.2446 136.713 50.0171 134.433 9.66506 184.299L6.08447 90.7553C6.08447 90.7553 48.0816 45.4525 69.2446 43.164Z" fill="#F5F5FB"/>
<path d="M285.447 200.905C285.447 204.091 265.232 222.506 219.219 222.506C173.205 222.506 148.291 204.733 148.291 201.546C148.291 198.36 174.06 206.252 220.074 206.252C266.087 206.252 285.447 197.714 285.447 200.905Z" fill="#F7F7FD"/>
<path opacity="0.1" d="M135.067 157.013C137.771 157.013 139.963 156.713 139.963 156.342C139.963 155.971 137.771 155.67 135.067 155.67C132.362 155.67 130.17 155.971 130.17 156.342C130.17 156.713 132.362 157.013 135.067 157.013Z" fill="#6C63FF"/>
<path opacity="0.1" d="M116.313 158.917C119.018 158.917 121.21 158.616 121.21 158.245C121.21 157.874 119.018 157.574 116.313 157.574C113.609 157.574 111.417 157.874 111.417 158.245C111.417 158.616 113.609 158.917 116.313 158.917Z" fill="#6C63FF"/>
<path opacity="0.1" d="M94.2318 156.342C96.9361 156.342 99.1284 156.041 99.1284 155.67C99.1284 155.299 96.9361 154.999 94.2318 154.999C91.5275 154.999 89.3352 155.299 89.3352 155.67C89.3352 156.041 91.5275 156.342 94.2318 156.342Z" fill="#6C63FF"/>
<path opacity="0.1" d="M123.821 164.144C125.742 164.144 127.299 163.93 127.299 163.665C127.299 163.4 125.742 163.186 123.821 163.186C121.9 163.186 120.343 163.4 120.343 163.665C120.343 163.93 121.9 164.144 123.821 164.144Z" fill="#6C63FF"/>
<path opacity="0.1" d="M104.358 163.665C106.279 163.665 107.836 163.45 107.836 163.186C107.836 162.921 106.279 162.707 104.358 162.707C102.437 162.707 100.88 162.921 100.88 163.186C100.88 163.45 102.437 163.665 104.358 163.665Z" fill="#6C63FF"/>
<path d="M116.211 158.096C116.211 158.096 123.073 135.566 115.134 126.545C109.195 119.795 102.444 120.586 99.4531 121.442C98.6719 121.65 97.9452 122.026 97.3233 122.543C96.7014 123.06 96.1991 123.706 95.8512 124.436C94.7958 126.716 94.9966 130.425 102.44 134.736C114.912 141.965 115.685 151.885 115.685 151.885L116.211 158.096Z" fill="#1565FF"/>
<path d="M100.513 124.633C100.513 124.633 120.749 130.968 116.211 158.096" stroke="#565987" stroke-miterlimit="10"/>
<path d="M112.331 126.904C112.331 126.904 109.545 128.782 110.43 131.61" stroke="#565987" stroke-miterlimit="10"/>
<path d="M102.542 128.577C102.542 128.577 104.251 126.84 106.315 127.798" stroke="#565987" stroke-miterlimit="10"/>
<path d="M110.562 137.299C110.562 137.299 113.553 135.78 114.327 137.684" stroke="#565987" stroke-miterlimit="10"/>
<path d="M117.941 140.468C117.941 140.468 115.694 140.289 115.656 141.362" stroke="#565987" stroke-miterlimit="10"/>
<path d="M116.489 158.275C116.489 158.275 108.447 141.901 106.234 142.26C105.187 142.432 104.704 143.462 104.482 144.502C104.207 145.843 104.357 147.236 104.909 148.488C106.067 151.106 109.131 156.09 116.489 158.275Z" fill="#1565FF"/>
<path d="M106.29 145.366C106.29 145.366 114.728 157.617 116.361 158.156" stroke="#565987" stroke-miterlimit="10"/>
<path d="M105.525 147.278H107.495" stroke="#565987" stroke-miterlimit="10"/>
<path d="M107.883 151.761L110.968 151.893" stroke="#565987" stroke-miterlimit="10"/>
<path d="M109.763 148.176L109.426 149.785" stroke="#565987" stroke-miterlimit="10"/>
<path d="M113.045 153.074L112.985 154.537" stroke="#565987" stroke-miterlimit="10"/>
<path d="M116.249 158.275C116.249 158.275 124.286 141.901 126.504 142.26C127.555 142.432 128.038 143.462 128.256 144.502C128.529 145.843 128.379 147.236 127.829 148.488C126.671 151.106 123.607 156.09 116.249 158.275Z" fill="#1565FF"/>
<path d="M126.436 145.366C126.436 145.366 117.997 157.617 116.369 158.156" stroke="#565987" stroke-miterlimit="10"/>
<path d="M127.213 147.278H125.244" stroke="#565987" stroke-miterlimit="10"/>
<path d="M124.855 151.761L121.766 151.893" stroke="#565987" stroke-miterlimit="10"/>
<path d="M122.975 148.176L123.312 149.785" stroke="#565987" stroke-miterlimit="10"/>
<path d="M119.693 153.074L119.753 154.537" stroke="#565987" stroke-miterlimit="10"/>
<path d="M102.444 162.099C102.225 161.92 102.065 161.679 101.987 161.406C101.951 161.27 101.963 161.126 102.022 160.998C102.08 160.87 102.181 160.767 102.307 160.705C102.598 160.589 102.914 160.795 103.162 161C103.264 161.12 103.389 161.217 103.53 161.286C103.671 161.354 103.825 161.392 103.982 161.398C103.822 161.253 103.702 161.068 103.634 160.863C103.566 160.658 103.552 160.438 103.593 160.226C103.61 160.138 103.648 160.056 103.705 159.986C103.867 159.811 104.162 159.888 104.358 160.025C104.978 160.453 105.149 161.308 105.153 162.065C105.186 161.781 105.186 161.494 105.153 161.21C105.14 161.069 105.163 160.928 105.218 160.798C105.273 160.668 105.359 160.554 105.469 160.465C105.616 160.386 105.781 160.346 105.948 160.35C106.086 160.33 106.228 160.34 106.362 160.378C106.497 160.416 106.622 160.483 106.73 160.572C106.832 160.713 106.884 160.884 106.879 161.059C106.874 161.233 106.811 161.4 106.7 161.535C106.469 161.794 106.196 162.013 105.892 162.181C105.66 162.317 105.462 162.506 105.315 162.732C105.297 162.763 105.282 162.796 105.273 162.831H103.521C103.132 162.634 102.77 162.388 102.444 162.099Z" fill="#1565FF"/>
<path d="M133.08 155.504C132.861 155.326 132.702 155.086 132.623 154.815C132.586 154.678 132.599 154.533 132.657 154.405C132.715 154.276 132.816 154.172 132.943 154.109C133.099 154.079 133.261 154.09 133.411 154.143C133.561 154.196 133.695 154.287 133.798 154.409C133.899 154.529 134.024 154.626 134.166 154.694C134.307 154.761 134.461 154.798 134.618 154.802C134.458 154.657 134.338 154.473 134.269 154.267C134.201 154.062 134.187 153.842 134.229 153.63C134.244 153.543 134.282 153.461 134.34 153.395C134.503 153.219 134.798 153.292 134.994 153.429C135.614 153.857 135.785 154.712 135.789 155.474C135.822 155.189 135.822 154.902 135.789 154.618C135.776 154.478 135.798 154.336 135.853 154.206C135.909 154.076 135.995 153.962 136.105 153.874C136.251 153.794 136.417 153.755 136.584 153.763C136.722 153.742 136.864 153.751 136.999 153.789C137.133 153.827 137.259 153.894 137.365 153.985C137.468 154.125 137.521 154.296 137.515 154.469C137.51 154.643 137.447 154.81 137.336 154.943C137.105 155.203 136.832 155.421 136.528 155.589C136.297 155.727 136.099 155.916 135.951 156.141C135.933 156.172 135.918 156.205 135.908 156.239H134.157C133.767 156.043 133.405 155.795 133.08 155.504Z" fill="#1565FF"/>
<path d="M122.868 162.099C122.649 161.92 122.489 161.679 122.411 161.406C122.376 161.27 122.388 161.126 122.447 160.999C122.505 160.871 122.605 160.767 122.731 160.705C123.026 160.589 123.338 160.795 123.586 161C123.687 161.12 123.813 161.217 123.954 161.285C124.095 161.354 124.249 161.392 124.406 161.398C124.246 161.252 124.127 161.068 124.06 160.863C123.992 160.657 123.979 160.438 124.022 160.226C124.035 160.138 124.072 160.055 124.128 159.986C124.291 159.811 124.586 159.888 124.782 160.025C125.402 160.453 125.577 161.308 125.581 162.065C125.612 161.781 125.612 161.494 125.581 161.21C125.568 161.069 125.591 160.928 125.646 160.798C125.701 160.668 125.787 160.554 125.897 160.465C126.099 160.373 126.321 160.334 126.542 160.352C126.763 160.371 126.975 160.447 127.158 160.572C127.261 160.713 127.315 160.884 127.309 161.059C127.304 161.233 127.24 161.401 127.128 161.535C126.898 161.795 126.625 162.014 126.32 162.181C126.09 162.32 125.893 162.508 125.743 162.732C125.727 162.764 125.712 162.797 125.701 162.831H123.953C123.561 162.636 123.196 162.39 122.868 162.099Z" fill="#1565FF"/>
<path d="M93.8986 148.771C93.8986 148.771 93.2448 149.626 94.2019 150.91C95.159 152.193 95.9538 153.301 95.6333 154.109C95.6333 154.109 94.1848 151.701 93.0098 151.667C91.8348 151.632 92.6167 150.217 93.8986 148.771Z" fill="#1565FF"/>
<path opacity="0.1" d="M93.8985 148.771C93.8412 148.853 93.7965 148.944 93.7661 149.04C92.6167 150.388 92.0057 151.65 93.108 151.679C94.1378 151.709 95.3726 153.553 95.6717 154.015C95.6629 154.051 95.6515 154.087 95.6375 154.122C95.6375 154.122 94.189 151.714 93.014 151.679C91.839 151.645 92.6167 150.217 93.8985 148.771Z" fill="black"/>
<path d="M92.6936 149.862C92.6936 150.165 92.7278 150.409 92.7705 150.409C92.8132 150.409 92.8432 150.165 92.8432 149.862C92.8432 149.558 92.8047 149.703 92.762 149.703C92.7192 149.703 92.6936 149.562 92.6936 149.862Z" fill="#FFD037"/>
<path d="M92.2749 150.225C92.5398 150.371 92.7705 150.456 92.7919 150.418C92.8132 150.379 92.6124 150.234 92.3646 150.093C92.1168 149.951 92.2022 150.05 92.1851 150.093C92.168 150.135 92.01 150.101 92.2749 150.225Z" fill="#FFD037"/>
<path d="M97.3766 148.771C97.3766 148.771 98.0346 149.626 97.0732 150.91C96.1118 152.193 95.3256 153.301 95.6461 154.109C95.6461 154.109 97.0903 151.701 98.2696 151.667C99.4489 151.632 98.6712 150.217 97.3766 148.771Z" fill="#1565FF"/>
<path opacity="0.1" d="M97.3765 148.771C97.4338 148.853 97.4785 148.944 97.5089 149.04C98.6583 150.388 99.2693 151.65 98.1669 151.679C97.1372 151.709 95.9066 153.553 95.6033 154.015C95.6121 154.051 95.6235 154.087 95.6375 154.122C95.6375 154.122 97.0817 151.714 98.2609 151.679C99.4402 151.645 98.6711 150.217 97.3765 148.771Z" fill="#1565FF"/>
<path d="M98.5985 149.862C98.5985 150.165 98.5686 150.409 98.5259 150.409C98.4832 150.409 98.449 150.165 98.449 149.862C98.449 149.558 98.4917 149.703 98.5344 149.703C98.5772 149.703 98.5985 149.562 98.5985 149.862Z" fill="#FFD037"/>
<path d="M99.0259 150.225C98.761 150.371 98.5302 150.456 98.5131 150.418C98.4961 150.379 98.6883 150.234 98.9404 150.093C99.1925 149.951 99.1028 150.05 99.1242 150.093C99.1455 150.135 99.278 150.101 99.0259 150.225Z" fill="#FFD037"/>
<path d="M98.3892 154.011C98.3892 154.011 96.5519 153.955 96.0007 153.562C95.4496 153.168 93.1807 152.706 93.044 153.326C92.9072 153.947 90.288 156.47 92.3561 156.487C94.4241 156.504 97.1672 156.162 97.7184 155.829C98.2696 155.495 98.3892 154.011 98.3892 154.011Z" fill="#A8A8A8"/>
<path opacity="0.2" d="M92.3219 156.265C94.3899 156.265 97.133 155.944 97.6842 155.606C98.1115 155.35 98.2696 154.43 98.3251 154.006H98.3892C98.3892 154.006 98.2696 155.486 97.7184 155.824C97.1672 156.162 94.4284 156.5 92.3561 156.483C91.7622 156.483 91.5528 156.265 91.5656 155.948C91.6468 156.145 91.8775 156.261 92.3219 156.265Z" fill="black"/>
<path opacity="0.1" d="M83.3917 214.524C91.5849 214.524 98.2268 213.542 98.2268 212.33C98.2268 211.118 91.5849 210.136 83.3917 210.136C75.1985 210.136 68.5566 211.118 68.5566 212.33C68.5566 213.542 75.1985 214.524 83.3917 214.524Z" fill="#6C63FF"/>
<path opacity="0.1" d="M124.829 232.695C133.022 232.695 139.664 231.712 139.664 230.501C139.664 229.289 133.022 228.306 124.829 228.306C116.636 228.306 109.994 229.289 109.994 230.501C109.994 231.712 116.636 232.695 124.829 232.695Z" fill="#6C63FF"/>
<path opacity="0.1" d="M63.8738 253.368C72.067 253.368 78.7089 252.386 78.7089 251.174C78.7089 249.962 72.067 248.979 63.8738 248.979C55.6806 248.979 49.0387 249.962 49.0387 251.174C49.0387 252.386 55.6806 253.368 63.8738 253.368Z" fill="#6C63FF"/>
<path opacity="0.1" d="M378.2 298.778C386.394 298.778 393.035 297.795 393.035 296.583C393.035 295.372 386.394 294.389 378.2 294.389C370.007 294.389 363.365 295.372 363.365 296.583C363.365 297.795 370.007 298.778 378.2 298.778Z" fill="#6C63FF"/>
<path opacity="0.1" d="M209.832 247.191C215.257 247.191 219.655 246.699 219.655 246.092C219.655 245.485 215.257 244.993 209.832 244.993C204.407 244.993 200.009 245.485 200.009 246.092C200.009 246.699 204.407 247.191 209.832 247.191Z" fill="#6C63FF"/>
<path opacity="0.1" d="M350.406 190.729C355.831 190.729 360.229 190.236 360.229 189.629C360.229 189.022 355.831 188.53 350.406 188.53C344.981 188.53 340.583 189.022 340.583 189.629C340.583 190.236 344.981 190.729 350.406 190.729Z" fill="#6C63FF"/>
<path opacity="0.1" d="M273.919 274.139C279.344 274.139 283.742 273.647 283.742 273.04C283.742 272.433 279.344 271.941 273.919 271.941C268.494 271.941 264.096 272.433 264.096 273.04C264.096 273.647 268.494 274.139 273.919 274.139Z" fill="#6C63FF"/>
<path opacity="0.1" d="M189.13 266.885C194.555 266.885 198.953 266.393 198.953 265.786C198.953 265.178 194.555 264.686 189.13 264.686C183.705 264.686 179.307 265.178 179.307 265.786C179.307 266.393 183.705 266.885 189.13 266.885Z" fill="#6C63FF"/>
<path opacity="0.1" d="M109.669 264.032C115.094 264.032 119.492 263.54 119.492 262.932C119.492 262.325 115.094 261.833 109.669 261.833C104.244 261.833 99.8462 262.325 99.8462 262.932C99.8462 263.54 104.244 264.032 109.669 264.032Z" fill="#6C63FF"/>
<path opacity="0.1" d="M88.9635 283.725C94.3886 283.725 98.7866 283.233 98.7866 282.626C98.7866 282.019 94.3886 281.527 88.9635 281.527C83.5383 281.527 79.1404 282.019 79.1404 282.626C79.1404 283.233 83.5383 283.725 88.9635 283.725Z" fill="#6C63FF"/>
<g opacity="0.1">
<path opacity="0.1" d="M217.399 131.485C253.296 131.485 282.396 118.484 282.396 102.446C282.396 86.4074 253.296 73.4059 217.399 73.4059C181.502 73.4059 152.401 86.4074 152.401 102.446C152.401 118.484 181.502 131.485 217.399 131.485Z" fill="black"/>
<path opacity="0.1" d="M283.524 112.827C280.649 127.969 252.235 139.857 217.6 139.857C182.661 139.857 154.051 127.76 151.598 112.434H151.354V137.11C162.78 149.062 188.075 157.373 217.437 157.373C246.8 157.373 272.095 149.062 283.524 137.11V112.827Z" fill="black"/>
<path opacity="0.1" d="M283.524 142.855C280.649 157.993 252.235 169.884 217.6 169.884C182.661 169.884 154.051 157.788 151.598 142.457H151.354V167.138C162.78 179.09 188.075 187.396 217.437 187.396C246.8 187.396 272.095 179.09 283.524 167.138V142.855Z" fill="black"/>
<path opacity="0.1" d="M283.524 175.881C280.649 191.024 252.235 202.911 217.6 202.911C182.661 202.911 154.051 190.818 151.598 175.488H151.354V202.102C151.353 202.67 151.47 203.231 151.696 203.75C151.923 204.27 152.255 204.737 152.671 205.122C164.634 216.12 189.156 220.427 217.437 220.427C245.719 220.427 270.227 216.12 282.208 205.122C282.624 204.737 282.956 204.27 283.182 203.75C283.409 203.231 283.525 202.67 283.524 202.102V175.881Z" fill="black"/>
</g>
<path d="M217.399 129.774C253.296 129.774 282.396 116.773 282.396 100.735C282.396 84.6964 253.296 71.6949 217.399 71.6949C181.502 71.6949 152.401 84.6964 152.401 100.735C152.401 116.773 181.502 129.774 217.399 129.774Z" fill="#1565FF"/>
<path d="M283.524 111.116C280.649 126.258 252.235 138.146 217.6 138.146C182.661 138.146 154.051 126.049 151.598 110.723H151.355V135.399C162.78 147.351 188.075 155.662 217.437 155.662C246.8 155.662 272.095 147.351 283.524 135.399V111.116Z" fill="#1565FF"/>
<path d="M283.524 141.144C280.649 156.282 252.235 168.173 217.6 168.173C182.661 168.173 154.051 156.077 151.598 140.746H151.355V165.427C162.78 177.379 188.075 185.685 217.437 185.685C246.8 185.685 272.095 177.379 283.524 165.427V141.144Z" fill="#1565FF"/>
<path d="M283.524 174.17C280.649 189.313 252.235 201.2 217.6 201.2C182.661 201.2 154.051 189.107 151.598 173.777H151.354V200.391C151.353 200.958 151.47 201.52 151.696 202.039C151.923 202.559 152.255 203.026 152.671 203.411C164.634 214.409 189.156 218.716 217.437 218.716C245.719 218.716 270.227 214.409 282.208 203.411C282.624 203.026 282.956 202.559 283.182 202.039C283.409 201.52 283.525 200.958 283.524 200.391V174.17Z" fill="#1565FF"/>
<path opacity="0.1" d="M313.207 248.74C326.658 248.74 337.562 246.775 337.562 244.351C337.562 241.927 326.658 239.962 313.207 239.962C299.756 239.962 288.852 241.927 288.852 244.351C288.852 246.775 299.756 248.74 313.207 248.74Z" fill="#6C63FF"/>
<path d="M299.534 188.432C300.765 189.159 302.696 189.634 305.127 188.068L305.106 191.537C305.277 193.915 308.217 202.586 308.217 202.586L310.289 209.716C311.776 214.756 312.543 219.98 312.566 225.235C312.566 226.972 312.729 228.768 313.229 230.12C314.335 233.114 312.801 236.964 312.131 238.384C311.008 238.764 309.868 239.085 308.712 239.346C308.609 239.371 308.508 239.403 308.409 239.441V239.419C308.409 239.419 305.298 240.655 303.914 240.484C302.884 240.36 302.239 241.648 303.059 242.593C302.39 242.798 301.691 242.89 300.991 242.867C299.607 242.696 298.915 245.074 301.508 245.754C304.102 246.434 318.796 245.754 318.796 245.754C319.209 245.547 319.541 245.209 319.74 244.792C319.94 244.376 319.996 243.904 319.898 243.453L321.736 243.376C321.736 243.376 324.329 242.187 321.736 238.957L321.595 239.06L321.044 237.426V235.223C321.044 235.223 324.329 219.396 323.291 217.544C322.253 215.692 321.702 206.136 321.702 206.136L322.065 195.785C323 193.851 323.479 190.814 323.723 188.44C324.076 187.309 324.299 186.141 324.385 184.958C324.428 184.398 324.462 183.816 324.483 183.209C324.497 181.876 324.284 180.551 323.851 179.291C325.024 177.549 326.334 175.904 327.769 174.371C328.366 173.816 328.819 173.123 329.091 172.354C329.362 171.585 329.444 170.761 329.328 169.953L328.474 164.174L326.397 154.336C326.658 151.602 326.09 150.028 325.457 149.139C325.607 148.253 325.748 147.372 325.855 146.482C326.312 142.626 326.107 138.72 325.248 134.933C324.949 133.616 324.539 132.26 323.611 131.259C322.565 130.121 320.864 129.432 320.471 127.948C320.416 127.57 320.336 127.195 320.232 126.827C319.851 125.856 318.655 125.501 317.604 125.373C315.732 125.146 313.028 124.975 311.229 125.711C309.65 126.41 308.351 127.617 307.537 129.141C307.132 129.768 306.98 130.524 307.11 131.259C307.174 131.514 307.273 131.758 307.405 131.986C306.806 133.611 306.871 135.407 307.586 136.985C308.301 138.562 309.609 139.794 311.225 140.413C311.267 140.545 311.306 140.674 311.336 140.798C311.415 141.102 311.472 141.413 311.507 141.726C311.472 142.325 311.434 142.928 311.408 143.531L311.344 143.775C309.857 144.434 308.406 145.174 306.999 145.99C308.033 147.522 306.824 153.981 306.824 153.981C304.23 155.508 301.641 159.417 304.405 163.498C307.17 167.579 305.615 171.993 305.615 171.993L305.187 178.64L305.102 179.971H305.132L305.102 180.475H305.174V181.019C303.961 181.468 302.183 182.366 301.128 184.034C300.628 184.852 300.02 185.599 299.321 186.254C299.158 186.394 299.031 186.571 298.951 186.77C298.871 186.969 298.84 187.185 298.861 187.399C298.882 187.612 298.954 187.818 299.071 187.998C299.189 188.178 299.347 188.326 299.534 188.432ZM320.407 170.774C320.303 169.624 320.515 168.467 321.022 167.429H322.244C322.28 167.7 322.33 167.968 322.394 168.233C322.744 169.752 321.343 170.466 320.407 170.774Z" fill="url(#paint0_linear)"/>
<path d="M320.749 236.647L321.415 238.645L319.253 240.809L312.101 242.495L306.943 241.994L307.277 240.163C307.375 239.769 307.58 239.41 307.868 239.125C308.157 238.84 308.518 238.64 308.913 238.547C311.049 238.05 315.074 236.913 315.925 235.334L320.749 236.647Z" fill="#DB8B8B"/>
<path opacity="0.1" d="M320.749 236.647L321.415 238.645L319.253 240.809L312.101 242.495L306.943 241.994L307.277 240.163C307.375 239.769 307.58 239.41 307.868 239.125C308.157 238.84 308.518 238.64 308.913 238.547C311.049 238.05 315.074 236.913 315.925 235.334L320.749 236.647Z" fill="black"/>
<path d="M308.605 241.477L309.605 240.146L308.605 238.602C308.605 238.602 305.615 239.813 304.281 239.646C302.948 239.479 302.286 241.81 304.781 242.478C307.277 243.145 321.415 242.478 321.415 242.478C321.415 242.478 323.911 241.31 321.415 238.144L319.253 239.813C319.253 239.813 315.591 241.81 313.763 241.477H308.605Z" fill="#C17174"/>
<path d="M304.119 244.308L309.276 244.809L316.429 243.141L318.591 240.976L318.416 240.45L318.168 239.706L317.924 238.979L313.092 237.648C312.847 238.047 312.512 238.382 312.114 238.628C310.545 239.701 307.734 240.476 306.08 240.861C306.011 240.877 305.942 240.899 305.875 240.925C305.554 241.027 305.261 241.205 305.021 241.442C304.732 241.726 304.528 242.084 304.431 242.478L304.119 244.308Z" fill="#DB8B8B"/>
<path opacity="0.1" d="M304.119 244.308L309.276 244.809L316.429 243.141L318.591 240.976L318.416 240.45L316.429 241.977C316.429 241.977 312.767 243.975 310.939 243.641H305.777L306.777 242.311L305.88 240.925C305.558 241.027 305.265 241.205 305.025 241.442C304.736 241.726 304.532 242.084 304.435 242.478L304.119 244.308Z" fill="black"/>
<path d="M305.777 243.808L306.777 242.478L305.777 240.933C305.777 240.933 302.786 242.144 301.453 241.977C300.12 241.81 299.458 244.141 301.953 244.809C304.448 245.476 318.587 244.809 318.587 244.809C318.587 244.809 321.082 243.641 318.587 240.48L316.425 242.144C316.425 242.144 312.763 244.141 310.934 243.808H305.777Z" fill="#C17174"/>
<path d="M309.934 147.222C309.934 147.222 317.92 148.078 316.771 144.724C316.442 143.78 316.357 142.768 316.523 141.781C316.729 140.56 317.211 139.403 317.933 138.398L310.447 139.561C310.897 140.312 311.239 141.123 311.464 141.97C312.34 145.503 309.934 147.222 309.934 147.222Z" fill="#DB8B8B"/>
<path d="M323.577 185.176C323.577 185.176 323.411 192.337 321.749 195.836L321.415 205.995C321.415 205.995 321.911 215.32 322.911 217.151C323.911 218.981 320.749 234.47 320.749 234.47V237.135C320.749 237.135 315.425 239.133 313.912 236.801L315.408 216.984L314.741 189.51L323.577 185.176Z" fill="#474463"/>
<path opacity="0.1" d="M323.577 185.176C323.577 185.176 323.411 192.337 321.749 195.836L321.415 205.995C321.415 205.995 321.911 215.32 322.911 217.151C323.911 218.981 320.749 234.47 320.749 234.47V237.135C320.749 237.135 315.425 239.133 313.912 236.801L315.408 216.984L314.741 189.51L323.577 185.176Z" fill="black"/>
<path d="M326.901 162.211L327.901 164.876L328.756 170.535C328.867 171.324 328.789 172.129 328.528 172.882C328.268 173.636 327.831 174.316 327.256 174.868C325.261 176.865 322.599 181.027 322.599 181.027L319.441 171.536C319.441 171.536 322.599 171.035 322.099 168.871C321.599 166.706 321.77 162.711 321.77 162.711L326.901 162.211Z" fill="#FF748E"/>
<path opacity="0.05" d="M326.94 162.172L327.936 164.837L328.79 170.5C328.903 171.289 328.826 172.093 328.566 172.846C328.306 173.599 327.87 174.279 327.295 174.829C325.295 176.827 322.637 180.993 322.637 180.993L319.454 171.488C319.454 171.488 322.616 170.988 322.116 168.824C321.616 166.659 321.783 162.66 321.783 162.66L326.94 162.172Z" fill="black"/>
<path opacity="0.1" d="M312.118 238.645C314.254 242.007 317.574 240.099 318.164 239.723L317.92 238.996L313.092 237.648C312.85 238.053 312.516 238.394 312.118 238.645Z" fill="black"/>
<path d="M305.444 191.687C305.61 194.018 308.435 202.509 308.435 202.509L310.43 209.498C311.857 214.44 312.595 219.556 312.622 224.7C312.572 226.32 312.787 227.937 313.259 229.487C314.592 233.153 311.93 238.144 311.93 238.144C314.258 242.311 318.249 239.479 318.249 239.479V236.814C318.249 236.814 321.411 222.326 320.578 219.495C319.745 216.663 319.416 209.006 319.416 209.006V195.181C322.079 192.523 323.699 188.995 323.979 185.241C324.017 184.693 324.052 184.12 324.073 183.53C324.205 179.774 321.637 175.368 320.655 173.798C320.415 173.418 320.262 173.204 320.262 173.204L305.576 179.038H305.542V179.616V180.873L305.444 191.687Z" fill="#474463"/>
<path opacity="0.1" d="M310.434 139.561C310.884 140.312 311.227 141.123 311.451 141.97C312.264 142.278 313.131 142.421 314 142.389C314.869 142.356 315.722 142.15 316.51 141.781C316.716 140.56 317.198 139.403 317.92 138.398L310.434 139.561Z" fill="black"/>
<path d="M313.763 142.059C317.345 142.059 320.249 139.152 320.249 135.566C320.249 131.98 317.345 129.073 313.763 129.073C310.181 129.073 307.277 131.98 307.277 135.566C307.277 139.152 310.181 142.059 313.763 142.059Z" fill="#DB8B8B"/>
<path opacity="0.1" d="M305.444 180.86H305.516C312.489 182.298 321.249 175.022 321.249 175.022C321.014 174.625 320.811 174.21 320.642 173.781C320.403 173.4 320.249 173.187 320.249 173.187L305.563 179.021L305.525 179.603L305.444 180.86Z" fill="black"/>
<path d="M307.277 147.056C307.277 147.056 316.591 141.392 319.582 143.723L323.744 149.053C323.744 149.053 326.406 149.887 325.91 155.234L327.906 164.893L321.924 166.39C321.924 166.39 318.433 169.722 321.261 174.551C321.261 174.551 312.442 181.878 305.452 180.377L305.952 172.554C305.952 172.554 307.448 168.22 304.79 164.225C302.132 160.23 304.623 156.398 307.119 154.9C307.11 154.883 308.272 148.553 307.277 147.056Z" fill="#FF748E"/>
<path d="M306.777 181.027C306.777 181.027 303.282 181.695 301.619 184.359C301.139 185.16 300.552 185.893 299.876 186.537C299.724 186.675 299.607 186.847 299.533 187.039C299.46 187.231 299.432 187.437 299.452 187.642C299.473 187.846 299.541 188.043 299.651 188.217C299.76 188.39 299.909 188.536 300.086 188.641C301.406 189.437 303.555 189.924 306.277 187.687C310.956 183.859 306.777 181.027 306.777 181.027Z" fill="#DB8B8B"/>
<path opacity="0.1" d="M311.934 150.221C311.934 150.221 315.258 149.887 316.091 158.545C316.925 167.202 318.253 169.204 318.253 169.204C318.253 169.204 319.087 173.7 317.087 176.365C315.087 179.03 311.267 184.693 311.267 184.693C311.267 184.693 307.11 185.857 306.277 181.699L311.434 172.04C311.434 172.04 312.263 168.708 310.268 166.377C308.272 164.046 306.777 148.553 311.934 150.221Z" fill="black"/>
<path d="M311.601 149.72C311.601 149.72 314.925 149.387 315.758 158.049C316.591 166.711 317.92 168.704 317.92 168.704C317.92 168.704 318.775 173.199 316.758 175.864C314.741 178.529 310.955 184.193 310.955 184.193C310.955 184.193 306.798 185.356 305.965 181.198L311.122 171.54C311.122 171.54 311.955 168.208 309.956 165.876C307.956 163.545 306.443 148.056 311.601 149.72Z" fill="#FF748E"/>
<path opacity="0.1" d="M308.853 155.965C308.853 155.965 308.524 161.128 310.02 163.96C311.515 166.792 311.515 170.453 310.02 172.451" fill="black"/>
<path opacity="0.1" d="M308.024 149.635C308.024 149.635 309.353 148.305 313.182 148.138C317.01 147.971 318.668 146.807 318.668 146.807" fill="black"/>
<path opacity="0.1" d="M317.275 127.174C318.288 127.298 319.441 127.644 319.804 128.594C319.904 128.955 319.983 129.322 320.039 129.693C320.415 131.148 322.052 131.832 323.06 132.936C323.949 133.919 324.342 135.245 324.633 136.541C325.461 140.253 325.659 144.078 325.218 147.855C324.893 150.614 324.227 153.335 324.043 156.107C323.859 158.878 324.197 161.8 325.709 164.131C326.363 165.132 327.222 166.013 327.683 167.125C326.731 167.9 325.415 168.011 324.184 168.054C322.76 168.102 321.328 168.102 319.89 168.054C319.137 168.084 318.388 167.926 317.711 167.596C317.231 167.29 316.837 166.868 316.566 166.368C315.745 164.978 315.54 163.306 315.574 161.693C315.609 160.08 315.865 158.476 315.895 156.859C315.98 155.977 315.784 155.091 315.335 154.327C314.922 153.847 314.455 153.416 313.942 153.044C312.16 151.461 311.549 148.929 311.49 146.546C311.43 144.164 311.823 141.781 311.622 139.407C311.545 138.479 311.195 137.363 310.285 137.183C309.997 137.171 309.711 137.134 309.43 137.072C308.699 136.79 308.772 135.759 308.576 135.002C308.341 134.146 307.614 133.492 307.409 132.636C306.931 130.621 309.494 128.213 311.173 127.503C312.853 126.793 315.476 126.951 317.275 127.174Z" fill="black"/>
<path d="M317.442 126.84C318.454 126.964 319.608 127.311 319.971 128.265C320.072 128.624 320.15 128.99 320.206 129.36C320.582 130.814 322.219 131.498 323.227 132.602C324.116 133.586 324.509 134.912 324.799 136.208C325.628 139.924 325.824 143.753 325.38 147.535C325.06 150.294 324.393 153.014 324.21 155.79C324.026 158.566 324.364 161.479 325.876 163.81C326.53 164.816 327.389 165.692 327.85 166.805C326.897 167.583 325.581 167.69 324.351 167.733C322.926 167.778 321.495 167.778 320.057 167.733C319.304 167.764 318.555 167.609 317.877 167.279C317.398 166.972 317.004 166.548 316.732 166.048C315.912 164.657 315.707 162.985 315.741 161.372C315.775 159.76 316.032 158.156 316.061 156.543C316.061 155.662 316.01 154.729 315.502 154.011C315.09 153.529 314.622 153.099 314.109 152.727C312.327 151.145 311.716 148.613 311.656 146.23C311.596 143.847 311.99 141.465 311.789 139.091C311.712 138.163 311.361 137.046 310.451 136.867C310.164 136.855 309.878 136.818 309.597 136.755C308.866 136.473 308.939 135.442 308.742 134.685C308.507 133.83 307.781 133.179 307.576 132.32C307.097 130.305 309.661 127.897 311.34 127.187C313.019 126.477 315.656 126.618 317.442 126.84Z" fill="#464353"/>
<path d="M54.7086 245.001C54.7086 245.001 59.289 244.86 60.6649 243.876C62.0407 242.892 67.7064 241.716 68.0482 243.295C68.39 244.873 74.9274 251.139 69.7573 251.182C64.5873 251.225 57.7508 250.374 56.3707 249.535C54.9906 248.697 54.7086 245.001 54.7086 245.001Z" fill="#A8A8A8"/>
<path opacity="0.2" d="M69.8513 250.622C64.6855 250.665 57.8448 249.818 56.469 248.979C55.4222 248.338 55.0034 246.045 54.8624 244.984H54.7086C54.7086 244.984 54.9992 248.68 56.375 249.518C57.7508 250.357 64.5915 251.204 69.7616 251.165C71.2528 251.165 71.7655 250.622 71.7399 249.835C71.5305 250.327 70.9623 250.622 69.8513 250.622Z" fill="black"/>
<path d="M345.638 184.838C345.638 184.838 348.778 184.74 349.727 184.064C350.675 183.388 354.559 182.584 354.794 183.666C355.029 184.749 359.52 189.052 355.969 189.082C352.419 189.112 347.727 188.526 346.783 187.952C345.839 187.379 345.638 184.838 345.638 184.838Z" fill="#A8A8A8"/>
<path opacity="0.2" d="M356.033 188.705C352.487 188.731 347.791 188.149 346.847 187.576C346.125 187.148 345.839 185.561 345.745 184.834H345.638C345.638 184.834 345.839 187.371 346.783 187.948C347.727 188.526 352.423 189.103 355.969 189.077C356.995 189.077 357.349 188.705 357.328 188.162C357.187 188.496 356.798 188.697 356.033 188.705Z" fill="black"/>
<path opacity="0.1" d="M13.3695 18.5044C18.4737 18.5044 22.6115 14.362 22.6115 9.25219C22.6115 4.14235 18.4737 0 13.3695 0C8.26523 0 4.12744 4.14235 4.12744 9.25219C4.12744 14.362 8.26523 18.5044 13.3695 18.5044Z" fill="#6C63FF"/>
<path opacity="0.1" d="M410.738 45.0248C415.842 45.0248 419.98 40.8824 419.98 35.7726C419.98 30.6627 415.842 26.5204 410.738 26.5204C405.633 26.5204 401.496 30.6627 401.496 35.7726C401.496 40.8824 405.633 45.0248 410.738 45.0248Z" fill="#6C63FF"/>
<path opacity="0.1" d="M6.83644 52.2623C10.6121 52.2623 13.6729 49.1981 13.6729 45.4183C13.6729 41.6385 10.6121 38.5743 6.83644 38.5743C3.06078 38.5743 0 41.6385 0 45.4183C0 49.1981 3.06078 52.2623 6.83644 52.2623Z" fill="#6C63FF"/>
<path opacity="0.1" d="M76.0554 13.7649C79.8311 13.7649 82.8919 10.7008 82.8919 6.92097C82.8919 3.14115 79.8311 0.0769958 76.0554 0.0769958C72.2798 0.0769958 69.219 3.14115 69.219 6.92097C69.219 10.7008 72.2798 13.7649 76.0554 13.7649Z" fill="#6C63FF"/>
<path opacity="0.1" d="M356.35 14.6204C360.125 14.6204 363.186 11.5563 363.186 7.77646C363.186 3.99664 360.125 0.932495 356.35 0.932495C352.574 0.932495 349.513 3.99664 349.513 7.77646C349.513 11.5563 352.574 14.6204 356.35 14.6204Z" fill="#6C63FF"/>
<path d="M380.115 276.496C380.115 276.496 381.824 278.738 379.324 282.121C376.825 285.505 374.761 288.358 375.594 290.467C375.594 290.467 379.367 284.187 382.431 284.097C385.494 284.008 383.49 280.278 380.115 276.496Z" fill="#FC6681"/>
<path opacity="0.1" d="M380.115 276.496C380.263 276.714 380.38 276.951 380.461 277.202C383.452 280.727 385.058 284.016 382.17 284.097C379.486 284.174 376.269 288.978 375.496 290.193C375.521 290.286 375.553 290.377 375.59 290.467C375.59 290.467 379.363 284.187 382.426 284.097C385.49 284.008 383.49 280.278 380.115 276.496Z" fill="black"/>
<path d="M383.294 279.354C383.294 280.141 383.204 280.782 383.097 280.782C382.99 280.782 382.901 280.141 382.901 279.354C382.901 278.567 383.012 278.926 383.118 278.926C383.225 278.926 383.294 278.562 383.294 279.354Z" fill="#FFD037"/>
<path d="M384.387 280.295C383.695 280.671 383.106 280.898 383.037 280.804C382.969 280.71 383.507 280.325 384.195 279.948C384.883 279.572 384.622 279.846 384.669 279.948C384.716 280.051 385.08 279.918 384.387 280.295Z" fill="#FFD037"/>
<path d="M371.073 276.496C371.073 276.496 369.364 278.738 371.864 282.121C374.363 285.505 376.427 288.358 375.594 290.467C375.594 290.467 371.817 284.187 368.758 284.097C365.698 284.008 367.694 280.278 371.073 276.496Z" fill="#FC6681"/>
<path opacity="0.1" d="M371.074 276.496C370.924 276.714 370.806 276.952 370.723 277.202C367.732 280.727 366.13 284.016 369.014 284.097C371.697 284.174 374.919 288.978 375.688 290.193C375.663 290.283 375.633 290.377 375.598 290.467C375.598 290.467 371.821 284.187 368.762 284.097C365.703 284.008 367.694 280.278 371.074 276.496Z" fill="black"/>
<path d="M367.89 279.354C367.89 280.141 367.98 280.782 368.091 280.782C368.202 280.782 368.288 280.141 368.288 279.354C368.288 278.567 368.177 278.926 368.065 278.926C367.954 278.926 367.89 278.562 367.89 279.354Z" fill="#FFD037"/>
<path d="M366.801 280.295C367.493 280.671 368.082 280.898 368.147 280.804C368.211 280.71 367.681 280.325 366.989 279.948C366.296 279.572 366.561 279.846 366.519 279.948C366.476 280.051 366.108 279.918 366.801 280.295Z" fill="#FFD037"/>
<path d="M368.437 290.176C368.437 290.176 373.223 290.026 374.663 288.999C376.102 287.973 382.025 286.745 382.383 288.392C382.742 290.039 389.57 296.592 384.169 296.635C378.769 296.678 371.616 295.779 370.18 294.924C368.745 294.068 368.437 290.176 368.437 290.176Z" fill="#A8A8A8"/>
<path opacity="0.2" d="M384.268 296.062C378.863 296.104 371.714 295.206 370.274 294.351C369.181 293.683 368.74 291.284 368.595 290.176H368.437C368.437 290.176 368.74 294.025 370.18 294.915C371.62 295.805 378.769 296.677 384.169 296.626C385.729 296.626 386.267 296.057 386.238 295.236C386.024 295.741 385.426 296.053 384.268 296.062Z" fill="black"/>
<path opacity="0.7" d="M135.212 53.8834C133.437 53.8834 131.702 54.4103 130.227 55.3973C128.751 56.3843 127.601 57.7872 126.922 59.4286C126.243 61.07 126.065 62.8761 126.412 64.6186C126.758 66.361 127.612 67.9616 128.867 69.2179C130.122 70.4741 131.721 71.3296 133.461 71.6763C135.202 72.0229 137.006 71.845 138.646 71.1651C140.285 70.4852 141.687 69.3339 142.673 67.8567C143.659 66.3795 144.185 64.6427 144.185 62.8661C144.185 60.4838 143.239 58.199 141.557 56.5144C139.874 54.8298 137.592 53.8834 135.212 53.8834ZM135.212 55.6244C136.649 55.6244 138.053 56.0508 139.247 56.8499C140.442 57.6489 141.373 58.7846 141.923 60.1133C142.473 61.442 142.616 62.9041 142.336 64.3147C142.056 65.7253 141.364 67.021 140.348 68.038C139.332 69.0549 138.038 69.7475 136.629 70.0281C135.22 70.3087 133.76 70.1646 132.432 69.6143C131.105 69.0639 129.971 68.1319 129.172 66.936C128.374 65.7402 127.948 64.3343 127.948 62.8961C127.948 60.9675 128.714 59.1179 130.076 57.7542C131.438 56.3905 133.286 55.6244 135.212 55.6244ZM140.292 60.351L139.476 59.5254C139.436 59.484 139.389 59.4511 139.336 59.4286C139.283 59.4061 139.226 59.3945 139.169 59.3945C139.111 59.3945 139.054 59.4061 139.001 59.4286C138.949 59.4511 138.901 59.484 138.861 59.5254L133.734 64.6113L131.572 62.4127C131.532 62.3713 131.484 62.3384 131.431 62.3159C131.378 62.2934 131.321 62.2818 131.264 62.2818C131.206 62.2818 131.15 62.2934 131.097 62.3159C131.044 62.3384 130.996 62.3713 130.956 62.4127L130.136 63.2297C130.095 63.2696 130.062 63.3175 130.039 63.3704C130.017 63.4233 130.005 63.4802 130.005 63.5377C130.005 63.5952 130.017 63.6521 130.039 63.705C130.062 63.7579 130.095 63.8058 130.136 63.8457L133.426 67.165C133.466 67.2064 133.514 67.2393 133.566 67.2618C133.619 67.2843 133.676 67.2959 133.734 67.2959C133.791 67.2959 133.848 67.2843 133.901 67.2618C133.954 67.2393 134.001 67.2064 134.041 67.165L140.292 60.9541C140.334 60.9142 140.367 60.8664 140.389 60.8134C140.411 60.7605 140.423 60.7036 140.423 60.6461C140.423 60.5886 140.411 60.5317 140.389 60.4788C140.367 60.4259 140.334 60.378 140.292 60.3381V60.351Z" fill="#3ACC6C"/>
<path opacity="0.7" d="M35.8785 99.3616C34.1509 99.7634 32.5809 100.669 31.367 101.963C30.1531 103.258 29.3496 104.883 29.058 106.635C28.7664 108.386 28.9999 110.185 29.7288 111.803C30.4578 113.422 31.6496 114.788 33.1537 115.729C34.6578 116.67 36.4067 117.144 38.1795 117.09C39.9523 117.036 41.6695 116.458 43.1141 115.428C44.5588 114.398 45.6661 112.962 46.2962 111.303C46.9263 109.643 47.051 107.834 46.6544 106.103C46.3905 104.951 45.9022 103.863 45.2174 102.9C44.5326 101.938 43.6648 101.12 42.6638 100.494C41.6628 99.8675 40.5482 99.4451 39.3838 99.2508C38.2195 99.0566 37.0283 99.0942 35.8785 99.3616ZM36.2716 101.073C37.672 100.745 39.138 100.842 40.4837 101.349C41.8294 101.857 42.9943 102.753 43.8308 103.924C44.6673 105.095 45.1377 106.489 45.1825 107.928C45.2272 109.367 44.8443 110.787 44.0822 112.008C43.3202 113.228 42.2132 114.195 40.9017 114.786C39.5901 115.376 38.133 115.564 36.7149 115.325C35.2968 115.085 33.9816 114.43 32.9359 113.442C31.8902 112.453 31.161 111.177 30.8409 109.773C30.4133 107.899 30.7446 105.931 31.7623 104.301C32.78 102.67 34.4013 101.51 36.2716 101.073ZM42.2834 104.537L41.3006 103.904C41.2526 103.873 41.1989 103.852 41.1425 103.842C41.0862 103.832 41.0284 103.833 40.9726 103.846C40.9168 103.859 40.8641 103.883 40.8177 103.916C40.7713 103.95 40.7321 103.992 40.7024 104.041L36.8569 110.149L34.2548 108.503C34.2068 108.471 34.1531 108.45 34.0967 108.44C34.0404 108.43 33.9826 108.431 33.9268 108.444C33.871 108.457 33.8183 108.481 33.7719 108.514C33.7255 108.548 33.6863 108.59 33.6566 108.639L33.0371 109.623C33.0059 109.671 32.9847 109.725 32.9747 109.782C32.9646 109.838 32.9661 109.896 32.9788 109.952C32.9916 110.008 33.0154 110.06 33.0489 110.107C33.0824 110.153 33.1249 110.192 33.1738 110.222L37.1219 112.716C37.17 112.748 37.2241 112.77 37.2809 112.78C37.3377 112.79 37.396 112.789 37.4523 112.776C37.5086 112.764 37.5618 112.74 37.6085 112.706C37.6553 112.672 37.6947 112.629 37.7243 112.579L42.4244 105.123C42.4557 105.076 42.4772 105.022 42.4876 104.966C42.4979 104.91 42.4968 104.852 42.4845 104.796C42.4721 104.74 42.4487 104.687 42.4157 104.641C42.3826 104.594 42.3405 104.555 42.2919 104.525L42.2834 104.537Z" fill="#3ACC6C"/>
<path opacity="0.7" d="M265.989 55.1838C264.214 55.1838 262.479 55.7106 261.004 56.6976C259.528 57.6847 258.378 59.0876 257.699 60.7289C257.02 62.3703 256.842 64.1764 257.188 65.9189C257.535 67.6614 258.389 69.262 259.644 70.5182C260.899 71.7745 262.498 72.63 264.238 72.9766C265.979 73.3232 267.783 73.1453 269.423 72.4654C271.062 71.7855 272.463 70.6342 273.449 69.157C274.435 67.6798 274.962 65.9431 274.962 64.1665C274.962 61.7841 274.016 59.4993 272.334 57.8148C270.651 56.1302 268.369 55.1838 265.989 55.1838ZM265.989 56.9247C267.425 56.9247 268.83 57.3512 270.024 58.1502C271.219 58.9492 272.15 60.0849 272.7 61.4137C273.249 62.7424 273.393 64.2045 273.113 65.6151C272.833 67.0256 272.141 68.3213 271.125 69.3383C270.109 70.3553 268.815 71.0478 267.406 71.3284C265.997 71.609 264.536 71.465 263.209 70.9146C261.882 70.3642 260.747 69.4322 259.949 68.2364C259.151 67.0406 258.725 65.6346 258.725 64.1964C258.725 62.2678 259.49 60.4183 260.853 59.0545C262.215 57.6908 264.062 56.9247 265.989 56.9247ZM271.069 61.6513L270.253 60.8258C270.213 60.7844 270.165 60.7514 270.113 60.729C270.06 60.7065 270.003 60.6949 269.945 60.6949C269.888 60.6949 269.831 60.7065 269.778 60.729C269.725 60.7514 269.678 60.7844 269.638 60.8258L264.51 65.9117L262.344 63.7259C262.304 63.6845 262.256 63.6516 262.204 63.6291C262.151 63.6066 262.094 63.595 262.036 63.595C261.979 63.595 261.922 63.6066 261.869 63.6291C261.816 63.6516 261.769 63.6845 261.729 63.7259L260.913 64.5515C260.871 64.5914 260.838 64.6392 260.816 64.6921C260.794 64.745 260.782 64.8019 260.782 64.8594C260.782 64.9169 260.794 64.9738 260.816 65.0268C260.838 65.0797 260.871 65.1275 260.913 65.1674L264.203 68.4867C264.243 68.5281 264.29 68.5611 264.343 68.5836C264.396 68.606 264.453 68.6176 264.51 68.6176C264.568 68.6176 264.625 68.606 264.678 68.5836C264.73 68.5611 264.778 68.5281 264.818 68.4867L271.069 62.2758C271.11 62.2359 271.143 62.1881 271.166 62.1352C271.188 62.0823 271.2 62.0254 271.2 61.9679C271.2 61.9104 271.188 61.8535 271.166 61.8005C271.143 61.7476 271.11 61.6998 271.069 61.6599V61.6513Z" fill="#3ACC6C"/>
<path opacity="0.7" d="M368.933 99.5455C367.164 99.4081 365.394 99.7987 363.847 100.668C362.3 101.537 361.045 102.846 360.241 104.429C359.436 106.012 359.119 107.799 359.328 109.562C359.538 111.326 360.265 112.988 361.418 114.338C362.571 115.688 364.097 116.666 365.805 117.147C367.513 117.629 369.325 117.593 371.012 117.044C372.699 116.495 374.186 115.458 375.284 114.063C376.383 112.668 377.044 110.979 377.183 109.208C377.276 108.031 377.136 106.848 376.772 105.725C376.407 104.602 375.825 103.562 375.059 102.665C374.293 101.767 373.357 101.03 372.306 100.495C371.255 99.9594 370.109 99.6369 368.933 99.5455ZM368.796 101.278C370.23 101.386 371.6 101.917 372.732 102.805C373.864 103.693 374.707 104.898 375.155 106.266C375.602 107.634 375.634 109.104 375.246 110.49C374.858 111.877 374.068 113.117 372.976 114.053C371.884 114.989 370.538 115.58 369.11 115.75C367.682 115.92 366.236 115.662 364.954 115.009C363.673 114.355 362.614 113.336 361.912 112.079C361.21 110.823 360.897 109.386 361.011 107.951C361.084 107.001 361.343 106.074 361.774 105.225C362.205 104.375 362.799 103.619 363.522 102.999C364.245 102.379 365.083 101.908 365.988 101.613C366.893 101.318 367.847 101.204 368.796 101.278ZM373.496 106.385L372.744 105.5C372.708 105.456 372.663 105.419 372.612 105.392C372.562 105.366 372.506 105.35 372.449 105.345C372.392 105.34 372.335 105.347 372.281 105.365C372.226 105.382 372.176 105.411 372.133 105.448L366.634 110.124L364.643 107.775C364.607 107.731 364.562 107.693 364.511 107.666C364.46 107.639 364.404 107.623 364.346 107.618C364.289 107.613 364.231 107.62 364.176 107.639C364.121 107.657 364.071 107.686 364.028 107.724L363.143 108.477C363.099 108.514 363.063 108.559 363.037 108.609C363.011 108.66 362.995 108.716 362.991 108.773C362.986 108.83 362.993 108.887 363.011 108.941C363.029 108.996 363.058 109.046 363.096 109.089L366.117 112.652C366.153 112.696 366.198 112.733 366.249 112.759C366.299 112.786 366.355 112.802 366.412 112.807C366.469 112.812 366.526 112.805 366.58 112.787C366.635 112.769 366.685 112.741 366.728 112.703L373.445 106.997C373.489 106.961 373.525 106.916 373.552 106.865C373.579 106.814 373.595 106.759 373.6 106.702C373.604 106.645 373.598 106.587 373.58 106.533C373.562 106.479 373.534 106.428 373.496 106.385Z" fill="#3ACC6C"/>
</g>
<defs>
<linearGradient id="paint0_linear" x1="314.117" y1="246.058" x2="314.117" y2="125.159" gradientUnits="userSpaceOnUse">
<stop stop-color="#808080" stop-opacity="0.25"/>
<stop offset="0.54" stop-color="#808080" stop-opacity="0.12"/>
<stop offset="1" stop-color="#808080" stop-opacity="0.1"/>
</linearGradient>
<clipPath id="clip0">
<rect width="451" height="331" fill="white"/>
</clipPath>
</defs>
</svg>
